<svg xmlns="http://www.w3.org/2000/svg" width="16" height="16" fill="none"><path stroke="#131923" stroke-linecap="round" d="M8 12c2.761.023 5.062-2.613 5.04-5.464-.022-2.85-2.279-5.18-5.04-5.203-2.761-.023-4.982 2.27-4.96 5.12C3.063 9.303 5.24 11.977 8 12Z"/><path stroke="#131923" stroke-linecap="round" d="M10.333 6a2.023 2.023 0 0 0-2-2M8 13.567c.214 0 .321 0 .396-.015a.729.729 0 0 0 .571-.926 2.269 2.269 0 0 0-.174-.344M8 13.567c-.214 0-.321 0-.396-.015a.729.729 0 0 1-.571-.926c.022-.07.072-.162.174-.344M8 13.567V15"/></svg>