<svg xmlns="http://www.w3.org/2000/svg" width="16" height="16" fill="none"><path fill="#131923" d="m13.983 7.877-.492.085.492-.085Zm-.47-2.72-.493.085.493-.085ZM4.625 2.349l-.498-.043.498.043ZM4.084 8.61l.498.043-.498-.043Zm5.246 3.91.493-.082-.493.081Zm-.442-2.697.494-.081-.494.08Zm-4.423-.275-.326.38.326-.38Zm.96.827.326-.379-.326.379Zm1.587 2.436-.484.125.484-.125Zm.317 1.222.484-.125-.484.125Zm1.116.59-.153-.475.153.476Zm.097-.03.153.476-.153-.476Zm-1.967-2.901.44-.236-.44.236Zm2.695 2.143-.484-.126.484.126Zm-1.487.743-.217.45.217-.45ZM2.648 1.686l-.498-.043.498.043ZM2 9.177l.498.043a.5.5 0 0 1-.998-.043H2Zm11.49-1.215-.47-2.72.986-.17.47 2.72-.985.17ZM8.83 1.833h-3.1v-1h3.1v1Zm-3.707.559-.541 6.261-.996-.086.541-6.261.996.086Zm7.897 2.85c-.338-1.954-2.1-3.409-4.19-3.409v-1c2.55 0 4.75 1.78 5.176 4.238l-.986.17ZM8.837 12.6l-.442-2.696.987-.162.441 2.696-.986.162ZM4.792 9.17l.959.826-.653.758-.959-.827.653-.757Zm2.704 3.515.317 1.223-.968.251-.317-1.223.968-.25Zm.796 1.463.097-.031.306.952-.097.03-.306-.951Zm-1.276-2.692c.208.39.37.802.48 1.23l-.968.25a4.584 4.584 0 0 0-.394-1.009l.882-.471Zm1.373 2.66a.59.59 0 0 0 .397-.407l.968.252a1.59 1.59 0 0 1-1.06 1.108l-.305-.952Zm-.576-.208c.024.09.089.173.187.22l-.434.9a1.343 1.343 0 0 1-.72-.869l.967-.251Zm.187.22c.09.043.195.05.292.02l.306.952c-.34.109-.71.084-1.032-.071L8 14.128Zm1.436-5.45h3.454v1H9.436v-1Zm-6.29-6.949L2.498 9.22l-.996-.086.648-7.49.996.085ZM2.5 1.66v7.518h-1V1.658h1Zm-.35-.016a.175.175 0 0 0 .174.19v-1c.484 0 .863.415.822.896l-.996-.086Zm7.673 10.795c.083.507.06 1.025-.07 1.522l-.967-.25c.094-.363.111-.74.05-1.11l.987-.162ZM5.731 1.833a.61.61 0 0 0-.608.559l-.996-.086A1.61 1.61 0 0 1 5.731.833v1Zm.02 8.163c.453.39.942.855 1.265 1.46l-.882.471c-.231-.432-.599-.797-1.036-1.173l.653-.758Zm8.725-2.205a1.61 1.61 0 0 1-1.586 1.886v-1a.61.61 0 0 0 .6-.715l.986-.17ZM2.324 1.833a.175.175 0 0 0 .176-.175h-1c0-.455.369-.825.824-.825v1Zm6.07 8.07a1.055 1.055 0 0 1 1.042-1.226v1c-.033 0-.06.03-.054.065l-.987.162Zm-3.812-1.25a.612.612 0 0 0 .21.517l-.653.757a1.612 1.612 0 0 1-.553-1.36l.996.086Z"/></svg>