<svg xmlns="http://www.w3.org/2000/svg" width="16" height="16" fill="none"><g clip-path="url(#a)"><path stroke="#131923" d="M1.333 9.333c0-2.514 0-3.77.781-4.552C2.895 4 4.152 4 6.667 4h2.666c2.514 0 3.772 0 4.553.781.78.781.78 2.038.78 4.552s0 3.772-.78 4.553c-.781.78-2.038.78-4.553.78H6.667c-2.514 0-3.772 0-4.553-.78-.78-.781-.78-2.038-.78-4.553ZM10.667 4c0-1.257 0-1.886-.39-2.276-.391-.39-1.02-.39-2.277-.39-1.257 0-1.886 0-2.276.39-.39.39-.39 1.019-.39 2.276"/><path fill="#131923" d="M11.333 6A.667.667 0 1 1 10 6a.667.667 0 0 1 1.333 0ZM6 6a.667.667 0 1 1-1.333 0A.667.667 0 0 1 6 6Z"/></g><defs><clipPath id="a"><path fill="#fff" d="M0 0h16v16H0z"/></clipPath></defs></svg>